# generated from PmQm by Jehee Lee
:FULLY-SPECIFIED
:DEGREES
1
root -101.7406105 39.92390006 -102.9821359 -134.8314839 88.20449943 -133.9019362
RightUpLeg -4.849182722 1.23698778 0.9492882206
RightLeg 13.42193439 0 0
RightFoot -7.528492501 -2.072087878 -1.967734287
RightToes 2.32829e-010 -1.59028e-015 9.93923e-017
Spine -9.045400329 -1.279920251 -1.238458763
Spine1 15.65480033 -2.950609517 4.431708879
HEad -19.30739596 1.985104247 4.980389793
LeftShoulder1 9.93923e-017 0 1.22299e-017
LeftArm -2.039053712 38.1759006 -78.63210117
LeftForeArm -10.28050863 -8.857026188 -5.639306144
LeftHand 0.8752000376 5.81839026 -5.575840892
RightShoulder 1.98785e-016 -4.96962e-017 1.55301e-017
RightArm 29.83269118 -42.38729902 89.58349728
RightForeArm -47.36169481 20.73739918 -15.18089612
RightHand 1.289419958 -11.36909963 -3.965950819
LeftUpLeg -6.12869097 -2.289332007 5.097286561
LeftLeg 17.499706 0 0
LeftFoot -9.318807146 -1.660482754 -2.530371787
LeftToes 8.82235e-011 9.04645e-011 1.87288e-011
2
root -101.7335433 39.94251173 -103.0094052 -133.5605451 88.29918105 -132.773029
RightUpLeg -4.977603479 1.208259572 0.8505827353
RightLeg 13.27872021 0 0
RightFoot -7.4883325 -1.622593467 -1.964376519
RightToes 2.32829e-010 -1.59028e-015 9.93923e-017
Spine -9.078503685 -1.178761259 -0.9641912162
Spine1 15.53114999 -2.742408283 3.977701393
HEad -18.68976203 1.93732069 4.985928846
LeftShoulder1 9.93923e-017 0 1.22299e-017
LeftArm -1.648971499 38.65493963 -79.16853353
LeftForeArm -11.25948229 -9.55959234 -5.496372818
LeftHand 0.8912206778 5.929887625 -5.714159159
RightShoulder 1.98785e-016 -4.96962e-017 1.55301e-017
RightArm 28.30880604 -42.40841548 89.59297318
RightForeArm -45.99500626 20.69261541 -14.44233335
RightHand 1.256665941 -11.21476691 -3.840112209
LeftUpLeg -6.10548391 -2.205788106 4.774465001
LeftLeg 17.08717802 0 0
LeftFoot -9.130104088 -1.710755666 -2.382527375
LeftToes 8.82235e-011 9.04645e-011 1.87288e-011
3
root -101.716347 40.01928142 -103.0303848 -131.0916131 88.34596358 -130.730191
RightUpLeg -5.209148865 1.307969845 0.8431866327
RightLeg 12.50426021 0 0
RightFoot -7.077206642 -0.4083203431 -1.951758299
RightToes 2.32829e-010 -1.59028e-015 9.93923e-017
Spine -9.661963636 -0.9343741915 -0.2243369995
Spine1 15.36631962 -2.233346446 2.801393114
HEad -16.41772801 1.655779003 4.394929422
LeftShoulder1 9.93923e-017 0 1.22299e-017
LeftArm 0.1365369965 39.64592063 -80.1976626
LeftForeArm -14.24216793 -11.85942359 -4.754419308
LeftHand 0.9302867813 6.17554114 -5.548516606
RightShoulder 1.98785e-016 -4.96962e-017 1.55301e-017
RightArm 26.38695915 -42.89241973 89.53973675
RightForeArm -45.45561965 20.62538186 -13.72744552
RightHand 1.196363469 -10.95614902 -3.923947085
LeftUpLeg -6.14761174 -1.829261819 3.9855664
LeftLeg 15.89497553 0 0
LeftFoot -8.552506323 -2.322087893 -1.89421554
LeftToes 8.82235e-011 9.04645e-011 1.87288e-011
4
root -101.6919256 40.1242241 -103.0533905 -127.4495863 88.33985903 -127.7008549
RightUpLeg -5.51485015 1.470136755 0.9408928543
RightLeg 11.37281493 0 0
RightFoot -6.504176504 1.186443392 -1.854368218
RightToes 2.32829e-010 -1.59028e-015 9.93923e-017
Spine -10.69101373 -0.5882460227 0.7541338527
Spine1 15.37693928 -1.519689652 1.278891071
HEad -13.42259774 1.269413115 3.471623127
LeftShoulder1 9.93923e-017 0 1.22299e-017
LeftArm 3.542289781 40.72026152 -80.99270559
LeftForeArm -18.6437899 -14.60114538 -3.319389018
LeftHand 0.9518923673 6.290614931 -5.159496065
RightShoulder 1.98785e-016 -4.96962e-017 1.55301e-017
RightArm 24.9815962 -43.62582961 89.22283218
RightForeArm -46.10479737 20.4954277 -13.18500267
RightHand 1.158987823 -10.84893716 -4.076982165
LeftUpLeg -6.388659782 -1.32511755 3.011661306
LeftLeg 14.47842908 0 0
LeftFoot -7.958108465 -3.223358074 -1.203038086
LeftToes 8.82235e-011 9.04645e-011 1.87288e-011
5
root -101.6648662 40.22305129 -103.0809977 -121.966087 88.33655786 -122.9277113
RightUpLeg -5.909078933 1.643729593 1.090861285
RightLeg 10.21696289 0 0
RightFoot -6.038962324 2.780546492 -1.619984446
RightToes 2.32829e-010 -1.59028e-015 9.93923e-017
Spine -11.90782453 -0.2214157887 1.630928524
Spine1 15.56515525 -0.7831756755 -0.07448254586
HEad -10.70516394 1.039787303 2.52144117
LeftShoulder1 9.93923e-017 0 1.22299e-017
LeftArm 8.018225654 41.60042526 -81.1610382
LeftForeArm -23.51331064 -16.85526999 -1.461166124
LeftHand 0.9446902926 6.244554202 -4.760674664
RightShoulder 1.98785e-016 -4.96962e-017 1.55301e-017
RightArm 23.79771781 -44.19902551 88.51228179
RightForeArm -46.4527099 20.26106063 -12.40978364
RightHand 1.145324483 -10.78971971 -4.245950239
LeftUpLeg -6.876516376 -0.8789194686 2.097120738
LeftLeg 13.30574175 0 0
LeftFoot -7.647120793 -4.021210365 -0.5604545184
LeftToes 8.82235e-011 9.04645e-011 1.87288e-011
6
root -101.6354748 40.29053187 -103.1131767 -114.1871648 88.35563061 -115.7351087
RightUpLeg -6.250466112 1.799872299 1.219650499
RightLeg 9.351875011 0 0
RightFoot -5.733667019 4.041771745 -1.316667323
RightToes 2.32829e-010 -1.59028e-015 9.93923e-017
Spine -12.81131059 0.06018918402 2.116242622
Spine1 15.71334233 -0.2602620279 -0.8036094361
HEad -8.987426964 1.06062223 1.738980197
LeftShoulder1 9.93923e-017 0 1.22299e-017
LeftArm 11.99883503 42.26248018 -80.85561982
LeftForeArm -27.71765336 -18.33497603 0.3001661963
LeftHand 0.9419785468 6.31543027 -4.572781018
RightShoulder 1.98785e-016 -4.96962e-017 1.55301e-017
RightArm 22.76508237 -44.42634901 87.68414819
RightForeArm -45.91236122 19.98663756 -11.57753018
RightHand 1.131826558 -10.62058103 -4.444432912
LeftUpLeg -7.38726679 -0.607796181 1.455156782
LeftLeg 12.65086387 0 0
LeftFoot -7.685902265 -4.437878212 -0.1699173438
LeftToes 8.82235e-011 9.04645e-011 1.87288e-011
7
root -101.598734 40.33176407 -103.1563021 -103.6363094 88.36138372 -105.4802354
RightUpLeg -6.372585815 1.943880199 1.305821212
RightLeg 8.826663003 0 0
RightFoot -5.5124061 4.999244533 -1.048594303
RightToes 2.32829e-010 -1.59028e-015 9.93923e-017
Spine -13.14659055 0.2613884374 2.349604692
Spine1 15.68919753 0.07054705303 -1.087527363
HEad -8.17180797 1.137624102 1.142508961
LeftShoulder1 9.93923e-017 0 1.22299e-017
LeftArm 14.7045608 42.8064914 -80.35153
LeftForeArm -30.9900858 -19.2368113 1.653958324
LeftHand 0.9645317109 6.628010959 -4.563052848
RightShoulder 1.98785e-016 -4.96962e-017 1.55301e-017
RightArm 22.27117494 -44.48380694 87.01844631
RightForeArm -45.52784275 19.79518873 -11.16543154
RightHand 1.129189919 -10.49802815 -4.681545028
LeftUpLeg -7.650758446 -0.4525678362 1.080497925
LeftLeg 12.38460364 0 0
LeftFoot -7.911201 -4.532698554 0.05426155477
LeftToes 8.82235e-011 9.04645e-011 1.87288e-011
8
root -101.5481281 40.35260346 -103.2222152 -90.15636949 88.32545964 -92.07105881
RightUpLeg -6.352360114 2.077654839 1.31929528
RightLeg 8.621340935 0 0
RightFoot -5.529901846 5.755438205 -0.7963546925
RightToes 2.32829e-010 -1.59028e-015 9.93923e-017
Spine -13.11647605 0.4470741496 2.660382453
Spine1 15.60164638 0.3808429974 -1.445462872
HEad -7.966154414 1.12860308 0.8490440079
LeftShoulder1 9.93923e-017 0 1.22299e-017
LeftArm 15.81413099 43.14548761 -79.74283551
LeftForeArm -32.54837977 -19.47467761 2.141338947
LeftHand 0.982336871 6.870052064 -4.42714402
RightShoulder 1.98785e-016 -4.96962e-017 1.55301e-017
RightArm 22.4613204 -44.50162998 86.65502754
RightForeArm -45.97884061 19.73909531 -11.21531223
RightHand 1.156611789 -10.59910172 -4.934420978
LeftUpLeg -7.676531155 -0.3613206904 0.8544698476
LeftLeg 12.35718557 0 0
LeftFoot -8.254169696 -4.383848124 0.2507770915
LeftToes 8.82235e-011 9.04645e-011 1.87288e-011
9
root -101.4785497 40.35359501 -103.3177021 -75.92918776 88.24848707 -77.92204666
RightUpLeg -6.438079435 2.197312853 1.199377704
RightLeg 8.697620229 0 0
RightFoot -5.838111338 6.325265607 -0.4532684961
RightToes 2.32829e-010 -1.59028e-015 9.93923e-017
Spine -13.14840157 0.6241169637 3.121639758
Spine1 15.61833729 0.723424084 -2.085912722
HEad -8.098681632 1.125726834 0.9122397841
LeftShoulder1 9.93923e-017 0 1.22299e-017
LeftArm 15.48746412 43.25999231 -79.11646023
LeftForeArm -31.92102045 -19.04319689 1.660678095
LeftHand 0.9676041632 6.775647593 -4.015798939
RightShoulder 1.98785e-016 -4.96962e-017 1.55301e-017
RightArm 22.77843874 -44.51528459 86.53494002
RightForeArm -46.55914684 19.736207 -11.35218879
RightHand 1.184498682 -10.73347079 -5.103656884
LeftUpLeg -7.688620852 -0.3560782415 0.6246240361
LeftLeg 12.46077306 0 0
LeftFoot -8.695707909 -4.037659237 0.4249086535
LeftToes 8.82235e-011 9.04645e-011 1.87288e-011
10
root -101.3842433 40.34233926 -103.4411119 -66.11177203 88.16285772 -68.26361275
RightUpLeg -6.650137053 2.283582093 0.9528175706
RightLeg 8.983983169 0 0
RightFoot -6.138736949 6.655811495 -0.03720010716
RightToes 2.32829e-010 -1.59028e-015 9.93923e-017
Spine -13.38858773 0.7195068849 3.467676522
Spine1 15.77453138 0.9421473894 -2.625471078
HEad -8.362364177 1.194882346 1.131587616
LeftShoulder1 9.93923e-017 0 1.22299e-017
LeftArm 14.57860825 43.31314385 -78.62941315
LeftForeArm -30.4039459 -18.34318797 0.8209382798
LeftHand 0.9442843574 6.589756469 -3.635349816
RightShoulder 1.98785e-016 -4.96962e-017 1.55301e-017
RightArm 22.90643635 -44.58012057 86.43681737
RightForeArm -46.73357766 19.73162119 -11.46895929
RightHand 1.175236807 -10.66310037 -5.072906725
LeftUpLeg -7.742239239 -0.4219047733 0.3571634239
LeftLeg 12.59051004 0 0
LeftFoot -9.138574987 -3.68340301 0.5221353246
LeftToes 8.82235e-011 9.04645e-011 1.87288e-011
11
root -101.2623453 40.32429241 -103.5870351 -64.26865347 88.11982913 -66.54609198
RightUpLeg -6.839861063 2.305028792 0.6644831079
RightLeg 9.493141383 0 0
RightFoot -6.424210873 6.753000815 0.3441989413
RightToes 2.32829e-010 -1.59028e-015 9.93923e-017
Spine -13.65858372 0.6813219764 3.53284315
Spine1 15.98423684 0.9146833572 -2.751355599
HEad -8.62342368 1.212081356 1.249028465
LeftShoulder1 9.93923e-017 0 1.22299e-017
LeftArm 13.72475189 43.36524752 -78.36743155
LeftForeArm -29.35127285 -17.70418578 0.04716464981
LeftHand 0.9486727683 6.638038269 -3.655760031
RightShoulder 1.98785e-016 -4.96962e-017 1.55301e-017
RightArm 23.11441836 -44.75877332 86.21989176
RightForeArm -46.91186238 19.75118058 -11.71575534
RightHand 1.151355219 -10.51728707 -4.958049897
LeftUpLeg -7.739990949 -0.4470798442 0.1362804214
LeftLeg 12.7694524 0 0
LeftFoot -9.554766824 -3.591609639 0.5970562573
LeftToes 8.82235e-011 9.04645e-011 1.87288e-011
12
root -101.1214134 40.2786 -103.7465577 -67.10521446 88.16755687 -69.46046528
RightUpLeg -7.237457765 2.312207433 0.2819437596
RightLeg 10.6542001 0 0
RightFoot -7.322895185 6.664242255 0.7129887954
RightToes 2.32829e-010 -1.59028e-015 9.93923e-017
Spine -13.7673 0.556218 3.40679
Spine1 16.0895 0.768035 -2.78236
HEad -8.83011 1.09444 1.24139
LeftShoulder1 9.93923e-017 0 1.22299e-017
LeftArm 12.59 43.231 -78.2524
LeftForeArm -28.0494 -16.8456 -0.951135
LeftHand 0.963778 6.76892 -3.92954
RightShoulder 1.98785e-016 -4.96962e-017 1.55301e-017
RightArm 23.4501 -45.0657 85.9691
RightForeArm -47.2843 19.7918 -12.0214
RightHand 1.15149 -10.5035 -5.01058
LeftUpLeg -7.805960697 -0.3812280339 -0.06962628637
LeftLeg 13.27855372 0 0
LeftFoot -10.15579851 -3.76263672 0.807424189
LeftToes 8.82235e-011 9.04645e-011 1.87288e-011
13
root -100.9784239 40.169 -103.9026497 -64.88123819 88.42322956 -67.35507702
RightUpLeg -8.494025373 2.829277555 -0.4998667666
RightLeg 13.42863785 0 0
RightFoot -9.120132321 6.061359909 1.125592259
RightToes 2.32829e-010 -1.59028e-015 9.93923e-017
Spine -13.566 0.427912 2.99054
Spine1 15.9317 0.703551 -3.07936
HEad -9.09825 0.940453 1.26792
LeftShoulder1 9.93923e-017 0 1.22299e-017
LeftArm 11.0854 42.7773 -78.186
LeftForeArm -25.6953 -15.5672 -2.25159
LeftHand 0.95407 6.6761 -3.99056
RightShoulder 1.98785e-016 -4.96962e-017 1.55301e-017
RightArm 23.5518 -45.4507 85.8329
RightForeArm -47.432 19.814 -12.2414
RightHand 1.16034 -10.5211 -5.18455
LeftUpLeg -8.173781457 -0.3512829301 -0.491318397
LeftLeg 14.41250228 0 0
LeftFoot -11.15793229 -3.837908672 1.24692683
LeftToes 8.82235e-011 9.04645e-011 1.87288e-011
